<?xml version="1.0" encoding="UTF-8" standalone="no"?>
<svg
   xmlns:dc="http://purl.org/dc/elements/1.1/"
   xmlns:cc="http://creativecommons.org/ns#"
   xmlns:rdf="http://www.w3.org/1999/02/22-rdf-syntax-ns#"
   xmlns:svg="http://www.w3.org/2000/svg"
   xmlns="http://www.w3.org/2000/svg"
   xmlns:sodipodi="http://sodipodi.sourceforge.net/DTD/sodipodi-0.dtd"
   xmlns:inkscape="http://www.inkscape.org/namespaces/inkscape"
   version="1.1"
   x="0px"
   y="0px"
   viewBox="0 0 100.4 100.4"
   enable-background="new 0 0 100 100"
   xml:space="preserve"
   id="svg3018"
   inkscape:version="0.48.5 r10040"
   width="100%"
   height="100%"
   sodipodi:docname="question.svg"><metadata
     id="metadata3030"><rdf:RDF><cc:Work
         rdf:about=""><dc:format>image/svg+xml</dc:format><dc:type
           rdf:resource="http://purl.org/dc/dcmitype/StillImage" /></cc:Work></rdf:RDF></metadata><defs
     id="defs3028" /><sodipodi:namedview
     pagecolor="#ffffff"
     bordercolor="#666666"
     borderopacity="1"
     objecttolerance="10"
     gridtolerance="10"
     guidetolerance="10"
     inkscape:pageopacity="0"
     inkscape:pageshadow="2"
     inkscape:window-width="1916"
     inkscape:window-height="1041"
     id="namedview3026"
     showgrid="false"
     fit-margin-top="0.2"
     fit-margin-right="0.2"
     fit-margin-bottom="0.2"
     fit-margin-left="0.2"
     inkscape:zoom="6.888"
     inkscape:cx="50.2"
     inkscape:cy="53.350407"
     inkscape:window-x="0"
     inkscape:window-y="18"
     inkscape:window-maximized="0"
     inkscape:current-layer="svg3018" /><path
     d="m 50.2,0.2 c 27.573,0 50,22.43 50,50 0,27.575 -22.427,50 -50,50 -27.562,0 -50,-22.425 -50,-50 0,-27.57 22.438,-50 50,-50 m 3.891,77.942 c 1.198,-1.192 1.807,-2.648 1.807,-4.332 0,-1.683 -0.606,-3.139 -1.8,-4.327 -1.192,-1.198 -2.648,-1.805 -4.332,-1.805 -1.683,0 -3.14,0.606 -4.331,1.803 -1.192,1.198 -1.799,2.655 -1.799,4.329 0,1.675 0.606,3.132 1.799,4.327 1.191,1.196 2.65,1.801 4.331,1.801 1.681,0 3.139,-0.604 4.325,-1.796 z m -0.886,-14.17 c 1.064,-0.868 1.604,-2.19 1.604,-3.928 0,-0.991 0.285,-1.943 0.864,-2.905 1.142,-1.851 3.081,-3.805 5.755,-5.798 5.259,-3.861 7.924,-8.43 7.924,-13.575 0,-4.902 -1.805,-8.902 -5.352,-11.876 -3.372,-2.873 -7.966,-4.329 -13.653,-4.329 -5.334,0 -10.203,1.332 -14.454,3.949 -2.214,1.326 -2.68,3.127 -2.68,4.4 0,1.165 0.461,2.243 1.336,3.121 0.871,0.877 1.938,1.339 3.085,1.339 1.035,0 2.021,-0.286 2.968,-0.873 2.331,-1.536 5.401,-2.317 9.126,-2.317 8.619,0 9.616,3.979 9.616,6.972 0,0.988 -0.315,1.91 -0.966,2.825 -0.501,0.709 -1.884,2.182 -5.601,5.162 -5.188,4.017 -7.819,8.892 -7.819,14.488 0,1.246 0.506,2.371 1.459,3.244 0.932,0.856 2.07,1.293 3.389,1.293 1.284,0.001 2.427,-0.402 3.399,-1.192 z"
     id="path3020"
     inkscape:connector-curvature="0"
     style="fill:#000000" /></svg>